<?xml version="1.0" standalone="no"?>
<!DOCTYPE svg PUBLIC "-//W3C//DTD SVG 20010904//EN"
 "http://www.w3.org/TR/2001/REC-SVG-20010904/DTD/svg10.dtd">
<svg version="1.0" xmlns="http://www.w3.org/2000/svg"
 width="1320.000000pt" height="1320.000000pt" viewBox="0 0 1320.000000 1320.000000"
 preserveAspectRatio="xMidYMid meet">
<metadata>
Created by potrace 1.14, written by Peter Selinger 2001-2017
</metadata>
<g transform="translate(0.000000,1320.000000) scale(0.100000,-0.100000)"
fill="#000000" stroke="none">
<path d="M4190 12959 c-8 -4 -32 -11 -52 -14 -21 -3 -38 -10 -38 -16 0 -6 -4
-8 -9 -5 -13 8 -141 -118 -141 -138 0 -9 -4 -16 -10 -16 -5 0 -9 -3 -8 -7 2
-11 -25 -67 -36 -74 -5 -4 -5 -12 -2 -18 4 -6 2 -11 -3 -11 -6 0 -11 -15 -11
-32 0 -18 -4 -49 -9 -69 -6 -25 -4 -44 5 -60 7 -13 10 -27 8 -31 -7 -11 25
-68 37 -68 6 0 8 -4 5 -9 -3 -4 27 -39 67 -76 39 -38 132 -125 205 -194 73
-69 139 -128 146 -131 8 -3 44 -32 80 -65 89 -81 142 -125 150 -125 3 0 20
-13 38 -30 17 -16 35 -30 40 -30 5 0 19 -11 32 -25 13 -14 27 -25 31 -25 5 0
17 -7 27 -17 10 -9 27 -21 38 -27 10 -6 52 -34 92 -61 40 -28 88 -57 106 -64
17 -7 32 -18 32 -23 0 -5 5 -6 10 -3 6 3 10 2 10 -4 0 -5 14 -12 30 -16 17 -4
30 -11 30 -17 0 -6 3 -9 6 -5 5 5 47 -13 117 -49 15 -9 27 -13 27 -11 0 3 25
-8 56 -24 31 -16 61 -26 65 -23 5 3 9 1 9 -4 0 -6 23 -13 50 -17 28 -4 50 -10
50 -14 0 -8 101 -8 115 0 6 4 22 9 36 12 57 14 108 95 101 162 -4 47 -15 85
-23 85 -5 0 -8 3 -8 8 3 13 -34 92 -43 92 -4 0 -8 7 -8 15 0 9 -7 18 -15 21
-8 4 -13 9 -10 13 5 8 -83 128 -157 214 -27 31 -48 57 -46 57 7 0 -138 156
-214 230 -145 142 -280 265 -304 278 -13 7 -24 16 -24 20 0 4 -18 18 -40 32
-22 14 -40 28 -40 32 0 4 -8 9 -17 12 -10 3 -58 45 -108 92 -49 47 -116 100
-148 117 -32 17 -74 46 -94 64 -19 18 -39 33 -43 33 -4 0 -13 7 -20 15 -7 8
-16 12 -21 9 -5 -3 -9 -1 -9 5 0 6 -17 13 -37 16 -21 3 -49 9 -63 14 -14 4
-32 4 -40 0z"/>
<path d="M8970 12960 c0 -6 -13 -10 -30 -10 -32 0 -100 -29 -100 -42 0 -4 -7
-8 -15 -8 -8 0 -30 -15 -50 -32 -51 -49 -65 -60 -65 -52 0 3 -6 1 -13 -5 -8
-6 -17 -8 -20 -4 -4 3 -7 1 -7 -5 0 -6 -8 -13 -17 -16 -10 -4 -61 -46 -113
-96 -52 -49 -100 -90 -107 -90 -7 0 -16 -6 -20 -13 -4 -8 -21 -22 -38 -33 -16
-10 -36 -27 -44 -37 -7 -10 -21 -22 -32 -25 -17 -7 -196 -171 -318 -293 -64
-63 -199 -209 -194 -209 2 0 -20 -28 -50 -63 -29 -34 -73 -89 -97 -122 -25
-33 -49 -63 -55 -67 -5 -4 -6 -8 -2 -8 5 0 -2 -15 -15 -32 -13 -18 -23 -35
-24 -38 -2 -12 -29 -66 -37 -71 -12 -9 -29 -78 -29 -121 1 -64 49 -134 101
-144 17 -4 33 -10 36 -13 13 -22 192 12 280 53 102 48 144 66 154 66 6 0 11 5
11 12 0 6 3 9 6 5 5 -5 171 74 199 96 6 4 39 26 73 50 35 23 74 49 86 57 12 8
39 26 59 38 20 13 37 27 37 31 0 4 10 12 23 18 22 11 39 24 122 97 25 21 45
35 45 31 0 -4 27 19 60 50 32 32 70 65 84 75 44 28 403 372 444 424 7 9 10 21
7 26 -3 6 -2 10 3 10 12 0 30 107 20 122 -4 7 -8 27 -8 45 0 17 -5 35 -10 38
-6 4 -8 10 -5 15 3 5 -5 27 -19 49 -14 21 -22 42 -19 45 4 3 1 6 -5 6 -7 0
-12 7 -12 15 0 22 -109 128 -153 148 -19 9 -44 17 -55 17 -12 0 -32 4 -46 10
-17 6 -26 6 -26 0z"/>
<path d="M2884 12228 c-3 -4 -29 -7 -57 -7 -29 1 -54 0 -57 -1 -4 -2 -123 -23
-190 -33 -9 -2 -20 -6 -25 -9 -6 -3 -29 -9 -52 -13 -24 -4 -45 -11 -49 -16 -3
-5 -10 -7 -15 -3 -5 3 -16 0 -24 -6 -8 -6 -19 -9 -25 -5 -5 3 -10 2 -10 -3 0
-6 -16 -13 -35 -16 -19 -4 -35 -12 -35 -18 0 -6 -3 -9 -6 -6 -9 10 -178 -65
-189 -83 -4 -5 -11 -7 -16 -4 -5 4 -9 1 -9 -6 0 -7 -3 -9 -7 -6 -3 4 -20 -3
-37 -16 -17 -12 -43 -28 -58 -35 -16 -6 -28 -16 -28 -21 0 -6 -7 -8 -15 -5 -8
4 -15 2 -15 -3 0 -4 -16 -17 -35 -27 -19 -11 -35 -23 -35 -28 0 -4 -5 -8 -11
-8 -14 0 -81 -52 -132 -102 -21 -21 -58 -52 -83 -70 -24 -17 -44 -36 -44 -42
0 -6 -18 -26 -40 -45 -22 -19 -40 -38 -40 -43 0 -6 -11 -19 -25 -30 -14 -11
-25 -25 -25 -33 0 -7 -7 -15 -15 -19 -8 -3 -15 -12 -15 -21 0 -8 -4 -15 -10
-15 -5 0 -10 -7 -10 -15 0 -9 -7 -18 -15 -21 -8 -4 -12 -10 -9 -15 3 -5 -1
-12 -10 -15 -8 -3 -18 -19 -21 -35 -4 -16 -10 -29 -15 -29 -4 0 -13 -13 -19
-30 -5 -16 -15 -30 -20 -30 -6 0 -11 -6 -11 -13 0 -7 -20 -53 -45 -102 -25
-50 -45 -98 -45 -107 0 -10 -5 -18 -10 -18 -6 0 -9 -3 -8 -7 0 -5 -2 -16 -5
-25 -4 -10 -10 -26 -14 -35 -3 -10 -7 -22 -7 -28 -2 -11 -25 -91 -34 -115 -3
-8 -4 -19 -3 -24 1 -4 -3 -14 -9 -21 -6 -8 -10 -22 -9 -32 1 -10 -1 -25 -4
-33 -11 -31 -18 -77 -19 -127 -1 -29 -5 -53 -8 -53 -10 0 -10 -399 0 -405 3
-2 6 -27 5 -55 -1 -27 1 -50 5 -50 4 0 12 -30 18 -67 14 -82 16 -91 25 -99 4
-4 7 -18 7 -31 0 -12 5 -23 11 -23 5 0 7 -5 4 -10 -4 -6 -1 -17 5 -25 6 -8 9
-19 5 -25 -3 -5 -2 -10 3 -10 9 0 26 -48 22 -59 -1 -2 2 -7 7 -10 5 -3 22 -31
37 -61 16 -30 37 -66 47 -79 11 -13 19 -30 19 -38 0 -7 7 -16 15 -19 8 -4 15
-13 15 -20 0 -8 7 -17 15 -20 8 -4 15 -11 15 -17 0 -6 7 -17 15 -26 40 -44 72
-82 90 -108 11 -15 34 -42 52 -60 18 -18 30 -33 26 -33 -3 0 23 -27 58 -60 35
-33 60 -60 56 -60 -11 0 96 -99 108 -100 6 -1 28 -19 50 -40 22 -22 44 -40 49
-40 5 0 16 -8 25 -18 21 -22 74 -57 84 -54 4 1 7 -1 7 -6 0 -4 17 -16 38 -27
20 -11 39 -22 42 -25 3 -4 26 -14 52 -24 48 -17 70 -37 52 -43 -6 -2 -9 -33
-8 -68 1 -36 -2 -65 -7 -65 -11 0 -9 -382 2 -396 4 -5 7 -27 5 -47 -2 -20 0
-37 4 -37 7 0 19 -43 22 -80 0 -8 4 -19 8 -25 4 -5 11 -25 15 -42 3 -18 11
-33 16 -33 5 0 8 -3 7 -7 -1 -5 12 -36 29 -70 l32 -62 -25 -20 c-14 -11 -38
-23 -54 -26 -17 -4 -30 -11 -30 -16 0 -6 -4 -7 -10 -4 -5 3 -10 3 -10 -2 0 -4
-10 -13 -23 -18 -34 -16 -111 -59 -117 -66 -3 -3 -22 -13 -42 -22 -21 -10 -38
-21 -38 -25 0 -4 -18 -15 -40 -25 -22 -9 -40 -21 -40 -27 0 -5 -6 -10 -13 -10
-8 0 -24 -11 -37 -25 -13 -14 -28 -25 -33 -25 -9 0 -53 -34 -110 -85 -15 -14
-31 -25 -35 -25 -5 0 -53 -43 -108 -95 -54 -52 -102 -95 -106 -95 -12 0 -48
-33 -49 -45 -1 -5 -32 -37 -69 -70 -37 -33 -69 -64 -69 -70 -1 -5 -20 -31 -44
-57 -85 -94 -117 -131 -117 -137 0 -4 -8 -14 -17 -23 -10 -9 -27 -29 -38 -43
-11 -15 -28 -36 -38 -48 -47 -59 -147 -203 -147 -213 0 -7 -7 -14 -15 -18 -8
-3 -15 -12 -15 -20 0 -8 -6 -19 -12 -23 -12 -8 -21 -22 -84 -138 -14 -27 -31
-53 -36 -56 -5 -3 -9 -8 -8 -10 2 -5 -23 -62 -30 -69 -9 -9 -44 -85 -42 -92 1
-5 -3 -8 -8 -8 -6 0 -10 -7 -10 -15 0 -8 -9 -32 -20 -52 -11 -21 -20 -43 -20
-50 0 -7 -5 -13 -11 -13 -5 0 -7 -5 -4 -10 4 -6 3 -16 -2 -23 -11 -14 -38 -98
-35 -109 1 -5 -2 -8 -8 -8 -5 0 -10 -9 -10 -19 0 -11 -4 -22 -10 -26 -5 -3 -7
-12 -3 -20 3 -9 0 -21 -6 -29 -6 -7 -9 -21 -5 -30 3 -9 2 -16 -4 -16 -5 0 -13
-19 -17 -42 -10 -55 -9 -51 -16 -63 -4 -5 -5 -19 -3 -30 1 -10 -1 -24 -5 -30
-8 -10 -21 -64 -22 -95 0 -8 -3 -22 -7 -30 -5 -15 -7 -22 -17 -95 -4 -22 -9
-47 -12 -55 -6 -16 -13 -72 -16 -132 -1 -21 -5 -38 -9 -38 -5 0 -8 -27 -8 -60
0 -33 -3 -60 -7 -60 -5 0 -8 -33 -7 -72 0 -40 -2 -77 -6 -83 -10 -13 -10 -417
0 -430 3 -5 6 -41 6 -78 -1 -38 2 -71 6 -73 5 -3 8 -27 8 -53 0 -26 3 -51 7
-55 4 -3 8 -21 9 -39 0 -17 2 -32 4 -32 2 0 7 -28 16 -93 3 -23 10 -42 14 -42
5 0 7 -11 5 -25 -1 -14 1 -28 5 -30 5 -3 11 -23 15 -45 4 -22 11 -40 17 -40 6
0 8 -7 5 -15 -4 -8 0 -27 8 -42 8 -15 15 -36 15 -45 0 -9 5 -20 10 -23 6 -4 7
-11 4 -17 -4 -6 -3 -13 2 -17 8 -5 34 -53 39 -71 3 -12 30 -65 35 -70 9 -8 34
-64 32 -72 -1 -5 3 -8 9 -8 5 0 7 -4 4 -10 -3 -5 -1 -10 4 -10 6 0 11 -7 11
-15 0 -8 5 -15 12 -15 6 0 8 -3 5 -6 -4 -4 7 -25 23 -47 17 -23 30 -46 30 -53
0 -6 7 -15 16 -18 9 -4 14 -9 11 -12 -3 -3 2 -15 11 -26 9 -11 24 -28 32 -38
8 -9 26 -32 40 -51 14 -18 40 -48 58 -65 17 -18 32 -36 32 -39 0 -4 15 -22 33
-39 19 -17 84 -78 145 -136 62 -57 120 -108 129 -113 10 -5 23 -15 28 -21 18
-20 94 -76 103 -76 5 0 17 -9 27 -20 10 -11 24 -20 32 -20 7 0 13 -4 13 -9 0
-5 8 -11 18 -15 9 -3 36 -17 60 -30 23 -13 42 -22 42 -18 0 3 6 -1 13 -9 6 -8
41 -28 77 -44 36 -17 68 -34 72 -40 4 -5 8 -6 8 -1 0 5 7 3 15 -4 8 -6 19 -9
24 -6 5 4 12 2 16 -4 6 -9 75 -32 85 -27 3 1 16 -6 30 -16 13 -9 37 -17 52
-17 16 0 28 -5 28 -11 0 -5 5 -7 10 -4 6 4 17 2 24 -4 8 -7 20 -10 27 -9 9 2
14 -6 14 -24 0 -14 3 -30 8 -34 4 -4 7 -36 7 -70 0 -35 4 -65 8 -68 4 -2 7
-17 6 -33 -1 -15 2 -32 6 -38 4 -5 7 -25 6 -43 0 -19 2 -36 6 -39 5 -2 8 -20
8 -39 0 -19 4 -34 9 -34 5 0 7 -13 6 -30 -1 -16 2 -30 7 -30 6 0 8 -14 6 -30
-3 -17 -1 -30 4 -30 4 0 8 -9 8 -19 0 -11 5 -32 12 -48 6 -15 12 -32 14 -38 1
-5 7 -30 13 -55 7 -25 13 -49 14 -55 2 -5 9 -21 17 -35 8 -14 13 -31 12 -38
-2 -6 2 -12 9 -12 6 0 9 -8 6 -20 -3 -11 -1 -20 3 -20 5 0 11 -14 15 -30 4
-17 10 -30 15 -30 5 0 11 -14 15 -30 4 -17 11 -30 15 -30 5 0 7 -7 4 -15 -4
-8 -1 -15 5 -15 6 0 11 -6 11 -14 0 -8 7 -22 16 -30 8 -9 13 -16 9 -16 -7 0
25 -59 43 -78 6 -7 12 -19 12 -26 0 -7 13 -31 29 -53 16 -23 27 -44 24 -47 -4
-3 -1 -6 6 -6 6 0 15 -8 19 -17 15 -35 54 -93 63 -93 5 0 9 -7 9 -15 0 -8 11
-22 25 -31 14 -9 25 -21 25 -27 0 -5 27 -35 59 -66 33 -31 87 -82 121 -113 33
-32 64 -58 69 -58 4 0 16 -9 26 -20 10 -11 22 -20 28 -20 5 0 23 -10 40 -22
27 -19 99 -58 117 -63 3 0 30 -13 60 -27 30 -15 78 -32 105 -38 28 -7 57 -14
65 -18 8 -3 23 -6 33 -7 9 -2 18 -4 20 -5 5 -5 44 -11 105 -17 34 -2 62 -8 62
-11 0 -4 48 -7 107 -6 115 1 223 18 223 36 0 6 3 9 6 5 3 -3 18 5 31 18 24 21
39 27 113 41 14 3 27 9 28 15 2 5 9 9 16 9 7 0 23 11 36 25 13 14 30 25 37 25
8 0 17 8 20 18 4 9 15 23 25 30 10 7 18 19 18 27 0 7 7 21 16 30 9 8 13 22 10
30 -3 8 -1 15 4 15 4 0 12 15 15 32 4 18 10 38 13 43 4 6 8 18 9 27 2 10 4 23
5 29 4 16 -67 30 -160 31 -40 1 -75 4 -77 9 -3 4 -23 6 -45 4 -22 -2 -40 1
-40 7 0 5 -10 8 -22 7 -13 -2 -27 -1 -33 2 -8 5 -45 14 -95 23 -3 1 -9 4 -15
7 -17 10 -120 43 -127 41 -5 -1 -8 2 -8 6 0 5 -34 26 -75 47 -41 21 -75 42
-75 47 0 5 -9 12 -19 16 -24 9 -141 118 -141 131 0 6 -9 16 -20 24 -11 8 -17
16 -14 19 3 3 -5 14 -18 24 -13 11 -29 30 -36 44 -29 55 -50 90 -62 105 -7 8
-9 15 -4 15 5 0 4 4 -2 8 -13 9 -94 176 -94 194 0 8 -3 18 -7 22 -5 4 -8 11
-9 14 0 4 -6 20 -12 35 -7 16 -12 34 -12 41 0 7 -3 16 -7 20 -4 3 -8 15 -10
26 -2 11 -4 29 -6 40 -2 11 -6 23 -10 26 -4 4 -7 17 -7 29 0 12 -3 25 -7 29
-4 4 -9 19 -10 34 -1 15 -5 43 -8 62 -3 19 -8 59 -11 88 -3 28 -9 52 -13 52
-4 0 -6 17 -6 38 l2 37 49 2 c27 0 87 4 134 8 47 4 106 6 132 6 25 -1 49 2 52
8 3 5 29 8 56 6 28 -2 50 1 50 5 0 5 17 8 38 8 20 0 60 5 87 11 28 7 62 12 78
11 15 0 27 4 27 10 0 5 10 8 23 6 12 -1 29 1 37 5 16 9 104 29 130 31 8 0 21
5 27 10 7 6 20 8 28 4 8 -3 15 -2 15 3 0 5 20 12 45 15 24 4 47 11 50 17 4 5
10 7 15 4 4 -3 25 2 46 11 21 9 47 17 58 19 12 1 34 7 49 14 16 6 34 11 40 11
7 0 21 6 32 14 11 7 25 14 30 15 32 5 64 16 90 29 17 9 35 17 40 18 6 1 28 10
50 19 22 10 45 19 50 20 6 0 33 12 60 25 28 13 53 23 58 22 4 -1 7 3 7 9 0 5
4 8 9 5 5 -3 14 1 21 9 7 8 19 15 26 15 8 0 14 5 14 12 0 6 3 8 6 5 4 -4 19 2
33 11 14 10 37 24 51 30 33 17 59 32 95 58 17 11 38 24 48 27 9 4 17 11 17 17
0 5 5 10 10 10 6 0 33 16 60 35 27 19 53 35 56 35 3 0 15 11 26 25 11 14 25
25 31 25 7 0 30 18 52 40 22 21 44 39 49 40 16 0 337 316 329 323 -2 3 10 16
27 30 16 14 30 29 30 34 0 5 8 16 18 25 9 9 26 29 37 44 11 14 28 35 38 45 9
11 14 19 10 19 -4 0 5 13 20 28 15 16 24 31 20 35 -3 4 -2 7 4 7 11 0 83 101
101 143 6 15 16 27 22 27 5 0 10 7 10 15 0 8 8 23 18 33 9 10 28 40 41 67 13
28 39 75 57 107 18 31 30 59 27 62 -4 3 -1 6 5 6 6 0 13 14 17 30 4 17 11 28
16 24 5 -3 9 1 9 8 0 16 91 201 103 209 5 3 8 8 6 10 -1 2 9 24 22 49 12 25
22 48 21 53 -1 4 2 7 7 7 8 0 20 32 20 53 0 4 7 15 16 23 8 9 15 24 15 34 0
10 6 25 13 32 14 14 39 91 38 121 0 9 5 17 11 17 5 0 8 7 5 15 -4 8 -2 17 3
20 6 4 10 19 10 35 0 16 4 31 9 35 6 3 8 14 6 25 -2 11 0 20 5 20 6 0 9 10 9
23 -1 12 4 54 11 92 7 39 13 108 14 155 1 47 6 93 10 103 5 9 4 23 -1 30 -6 6
-9 51 -9 100 1 48 -2 87 -6 87 -4 0 -8 20 -8 45 0 25 -4 45 -9 45 -5 0 -7 9
-4 20 3 11 2 28 -3 37 -4 10 -8 28 -9 40 0 12 -4 25 -8 29 -4 4 -7 15 -7 25 0
10 -5 30 -12 46 -7 15 -12 33 -13 38 -4 26 -30 101 -38 106 -5 3 -8 9 -7 13 3
13 -24 76 -33 76 -4 0 -6 4 -3 9 4 5 3 11 -1 13 -5 1 -21 29 -36 60 -16 31
-35 62 -43 69 -8 6 -14 17 -14 25 0 7 -9 18 -20 24 -11 6 -20 17 -20 25 0 8
-9 19 -20 25 -11 6 -20 16 -20 22 0 14 -119 126 -142 133 -10 4 -18 11 -18 16
0 5 -16 17 -35 26 -19 9 -35 20 -35 25 0 4 -5 8 -11 8 -6 0 -23 9 -39 20 -15
11 -30 17 -34 13 -3 -3 -6 -1 -6 5 0 7 -3 11 -7 10 -5 -1 -19 3 -33 9 -41 19
-65 26 -72 25 -5 -1 -8 2 -8 7 0 4 -28 14 -62 21 -35 7 -67 16 -73 19 -5 3
-19 7 -30 8 -11 1 -47 7 -80 13 -33 6 -69 13 -80 14 -11 2 -27 6 -35 10 -20 8
-219 26 -295 26 -117 0 -290 -10 -292 -18 -2 -4 -28 -5 -58 -4 -30 2 -55 0
-55 -5 0 -5 -16 -10 -35 -11 -19 -2 -48 -4 -65 -5 -16 -1 -30 -5 -30 -9 0 -5
-13 -8 -30 -8 -16 0 -30 -4 -30 -9 0 -6 -10 -8 -22 -6 -12 3 -28 -1 -35 -7 -7
-6 -16 -8 -20 -5 -3 4 -11 3 -17 -2 -6 -5 -31 -15 -56 -22 -55 -15 -51 -14
-75 -23 -11 -4 -31 -12 -45 -16 -14 -4 -34 -12 -45 -16 -11 -4 -23 -6 -27 -6
-5 1 -8 -3 -8 -8 0 -6 -5 -10 -10 -10 -6 0 -44 -16 -85 -35 -41 -20 -77 -34
-81 -33 -3 2 -10 -5 -15 -14 -5 -9 -22 -19 -38 -23 -16 -3 -32 -13 -35 -21 -3
-8 -12 -14 -19 -14 -8 0 -20 -7 -27 -15 -7 -8 -16 -12 -21 -9 -5 3 -9 1 -9 -4
0 -5 -13 -15 -30 -22 -16 -7 -27 -16 -24 -21 3 -5 -4 -9 -15 -9 -11 0 -24 -6
-28 -13 -4 -7 -19 -20 -33 -29 -14 -9 -34 -25 -45 -35 -12 -11 -26 -22 -32
-24 -12 -4 -222 -199 -328 -304 -88 -88 -301 -338 -341 -400 -10 -16 -27 -40
-38 -52 -10 -11 -17 -24 -17 -27 1 -6 -8 -19 -36 -51 -7 -7 -13 -18 -13 -24 0
-5 -8 -15 -17 -20 -10 -6 -14 -11 -10 -11 4 0 -6 -20 -23 -44 -16 -25 -30 -49
-30 -55 0 -6 -4 -11 -10 -11 -5 0 -10 -7 -10 -15 0 -8 -4 -15 -10 -15 -5 0
-10 -6 -10 -14 0 -8 -7 -21 -15 -30 -9 -8 -16 -19 -17 -23 -1 -12 -22 -57 -28
-63 -4 -3 -12 -20 -19 -38 -8 -17 -18 -32 -23 -32 -6 0 -8 -7 -4 -15 3 -8 1
-15 -4 -15 -6 0 -10 -7 -10 -15 0 -8 -14 -40 -31 -70 -17 -30 -28 -55 -24 -55
3 0 -1 -10 -9 -22 -9 -12 -16 -30 -16 -40 0 -10 -5 -18 -11 -18 -5 0 -8 -4 -5
-9 4 -5 -1 -24 -11 -43 -32 -65 -34 -70 -29 -75 3 -3 -1 -12 -9 -20 -8 -8 -15
-25 -15 -38 0 -13 -5 -27 -11 -30 -6 -4 -8 -13 -5 -21 3 -8 1 -14 -4 -14 -6 0
-10 -9 -10 -19 0 -11 -4 -22 -10 -26 -5 -3 -7 -12 -3 -20 3 -8 1 -15 -4 -15
-5 0 -10 -6 -11 -12 0 -7 -6 -31 -12 -53 -6 -22 -12 -46 -12 -52 -1 -7 -5 -13
-9 -13 -4 0 -10 -22 -14 -50 -4 -27 -10 -50 -15 -50 -4 0 -6 -11 -5 -25 2 -14
-1 -25 -7 -25 -5 0 -8 -8 -6 -17 1 -10 -2 -25 -7 -32 -8 -14 -10 -23 -17 -83
-2 -15 -7 -30 -11 -34 -4 -4 -7 -18 -7 -31 0 -12 -4 -23 -9 -23 -4 0 -7 -14
-5 -31 2 -17 1 -36 -4 -43 -4 -6 -8 -20 -9 -31 -1 -11 -7 -47 -14 -80 -6 -33
-12 -73 -14 -90 -1 -16 -4 -30 -5 -30 -1 0 -4 -16 -6 -35 -2 -19 -9 -69 -14
-110 -6 -41 -11 -101 -11 -132 -1 -32 -6 -58 -10 -58 -5 0 -7 -31 -6 -70 1
-38 0 -70 -3 -70 -10 0 -80 70 -80 79 0 6 -6 14 -14 18 -7 4 -37 44 -65 88
-28 44 -54 85 -58 90 -5 6 -15 24 -23 40 -8 17 -27 52 -42 78 -15 26 -27 51
-26 55 1 4 -5 21 -15 38 -9 17 -13 34 -10 38 4 3 0 6 -7 6 -7 0 -11 3 -7 6 3
4 -1 21 -10 38 -10 17 -16 35 -15 40 2 4 -1 13 -6 20 -12 14 -37 88 -34 100 2
4 -2 14 -9 22 -6 7 -8 18 -4 24 3 5 1 10 -4 10 -6 0 -11 11 -11 24 0 14 -4 27
-9 30 -5 3 -7 15 -4 26 3 11 1 20 -5 20 -6 0 -11 8 -11 17 0 10 -5 38 -11 63
-7 25 -13 54 -15 65 -1 11 -4 22 -5 25 -2 3 -4 16 -5 30 -1 14 -5 32 -8 40 -7
18 -15 85 -19 155 -2 28 -6 55 -9 60 -6 10 -5 480 1 480 2 0 4 25 6 55 2 30 8
89 14 130 6 41 11 84 11 95 0 10 4 24 9 30 4 5 7 25 6 43 -1 17 1 32 5 32 7 0
23 96 20 118 -1 6 3 12 9 12 6 0 10 8 9 18 -1 9 0 24 4 32 3 8 9 29 13 45 4
17 9 37 11 45 3 8 5 22 7 30 1 9 4 20 8 25 6 12 20 68 18 74 -1 2 2 7 7 10 5
3 15 30 22 59 7 28 22 71 34 95 11 23 21 47 22 52 1 6 6 23 13 38 7 16 12 34
12 41 0 6 5 17 11 23 6 6 12 17 14 24 8 36 18 59 25 59 4 0 7 6 7 12 -2 15 35
92 46 96 4 2 7 11 7 19 0 17 51 116 63 121 4 2 5 8 1 13 -3 5 0 9 7 9 7 0 9 3
6 6 -4 4 2 19 12 33 10 14 26 43 34 64 9 20 21 37 26 37 6 0 11 6 11 14 0 7
20 44 45 80 25 37 45 72 45 77 0 5 5 9 10 9 6 0 15 11 20 25 5 14 14 25 20 25
6 0 8 5 5 10 -3 6 1 13 9 16 9 3 16 13 16 20 0 8 7 17 15 20 8 4 15 12 15 20
0 8 9 19 20 26 11 7 20 18 20 25 0 6 11 20 25 31 14 11 25 25 25 31 0 5 16 23
35 38 19 15 35 31 35 35 0 18 274 275 330 311 17 11 30 23 30 29 0 5 4 7 9 3
5 -3 13 -1 16 5 4 7 16 1 32 -14 14 -14 34 -28 44 -31 10 -4 19 -10 19 -14 0
-4 24 -23 53 -41 28 -19 55 -39 59 -44 4 -6 8 -7 8 -2 0 5 8 2 18 -7 18 -17
72 -41 85 -39 4 1 7 -2 7 -7 0 -8 87 -36 103 -33 4 1 7 -2 7 -7 0 -5 24 -14
53 -21 28 -6 59 -14 67 -17 8 -3 26 -8 40 -10 56 -9 66 -11 80 -16 31 -12 250
-27 405 -28 49 0 94 -3 100 -7 16 -10 35 -11 35 -2 0 5 62 8 138 9 75 0 171 5
212 11 41 5 92 10 113 10 20 -1 37 3 37 7 0 8 32 13 98 16 17 1 32 5 32 8 0 4
20 10 45 13 25 4 45 11 45 17 0 5 3 8 8 7 10 -3 105 23 118 33 6 5 14 6 17 2
4 -3 7 -1 7 6 0 7 4 10 9 6 5 -3 12 -1 16 5 3 5 15 10 26 10 11 0 22 7 25 15
4 8 11 12 16 9 6 -4 13 -3 17 2 3 5 24 18 46 29 22 11 42 22 45 25 3 3 29 23
57 45 29 21 53 43 53 48 0 4 4 6 9 3 4 -3 39 27 76 67 37 40 66 73 64 74 -2 1
3 11 12 21 8 10 14 23 11 30 -2 7 1 12 8 12 6 0 8 5 5 10 -3 6 -2 10 4 10 5 0
13 21 17 48 3 26 9 52 13 57 8 14 9 85 1 85 -4 0 -10 22 -14 50 -4 27 -11 52
-16 55 -6 4 -8 11 -5 16 4 5 -1 16 -9 25 -9 8 -16 22 -16 30 0 8 -5 14 -10 14
-6 0 -15 11 -20 25 -5 14 -15 25 -21 25 -7 0 -10 3 -6 6 14 14 -134 139 -177
150 -14 3 -26 10 -26 15 0 5 -3 8 -7 7 -5 0 -30 10 -58 23 -27 13 -57 23 -65
24 -8 0 -19 3 -25 6 -5 4 -26 10 -45 14 -19 4 -39 11 -45 15 -5 5 -14 9 -20
10 -5 2 -14 4 -20 5 -27 8 -102 26 -115 29 -8 1 -22 5 -30 8 -8 4 -22 7 -30 7
-8 0 -55 5 -105 12 -93 11 -608 7 -695 -7 -25 -3 -61 -8 -80 -9 -19 -1 -35 -3
-35 -5 0 -2 -16 -4 -35 -6 -45 -3 -171 -24 -190 -31 -8 -3 -22 -7 -30 -9 -8
-1 -28 -5 -45 -9 -89 -19 -119 -26 -129 -32 -5 -4 -22 -8 -36 -10 l-27 -2 2
182 c2 100 3 184 4 187 1 8 62 5 89 -4 12 -4 41 -9 65 -11 23 -2 53 -6 67 -9
112 -26 710 -36 930 -15 58 5 129 10 158 10 28 0 52 4 52 8 0 4 15 8 33 9 49
2 107 10 162 22 28 6 66 12 85 15 66 9 85 12 85 15 0 1 9 4 20 6 94 17 141 28
146 36 3 5 10 8 15 7 5 -1 16 0 24 4 35 13 136 41 148 40 6 0 12 3 12 8 0 4
16 11 35 15 19 3 35 10 35 15 0 5 3 8 8 7 12 -4 132 44 132 53 0 5 3 8 8 7 4
-1 20 4 35 10 16 7 33 12 38 12 5 0 9 5 9 12 0 6 2 9 5 6 3 -3 29 8 58 23 29
16 66 36 84 44 17 8 35 19 38 25 4 6 11 8 16 5 5 -4 9 -2 9 4 0 5 10 16 23 23
56 31 97 61 97 69 0 5 4 9 10 9 21 0 130 92 248 210 68 67 121 124 119 126 -2
3 15 25 39 51 24 26 42 49 39 51 -3 3 4 11 15 19 11 8 20 18 20 24 0 5 9 18
20 29 11 11 20 27 20 35 0 8 4 15 10 15 5 0 16 15 25 34 9 18 25 42 35 54 10
11 16 22 13 25 -3 4 2 13 11 22 9 9 16 23 16 31 0 8 4 14 10 14 5 0 9 3 8 8 0
4 7 25 17 47 10 22 18 46 16 53 -1 6 3 12 9 12 5 0 10 4 10 9 0 5 5 22 12 38
6 15 12 36 12 45 1 9 4 20 8 23 4 4 10 34 14 66 8 69 19 76 27 17 6 -43 14
-81 17 -85 2 -2 3 -11 4 -20 1 -10 11 -36 21 -58 10 -22 17 -46 16 -52 -1 -7
2 -13 7 -13 6 0 13 -16 16 -35 4 -19 11 -35 16 -35 5 0 12 -11 16 -25 3 -14
24 -52 45 -86 22 -33 39 -64 39 -70 0 -5 7 -12 15 -15 8 -3 17 -15 21 -27 9
-27 123 -177 140 -184 8 -3 12 -8 9 -12 -12 -20 343 -352 368 -343 4 1 7 -2 7
-7 0 -8 14 -18 90 -66 8 -5 30 -20 47 -32 17 -13 35 -23 41 -23 5 0 20 -8 33
-18 13 -10 58 -34 99 -53 41 -18 78 -37 81 -42 3 -5 9 -8 13 -7 3 0 27 -8 52
-20 26 -11 49 -20 53 -20 3 0 18 -6 33 -14 15 -8 40 -17 57 -21 17 -4 31 -11
31 -16 0 -6 5 -7 10 -4 6 4 17 1 25 -5 8 -6 19 -9 24 -6 5 4 12 2 15 -3 3 -5
23 -12 43 -16 21 -4 42 -10 48 -13 12 -8 12 -8 95 -27 90 -22 112 -26 135 -26
10 0 24 -4 30 -8 8 -6 92 -21 210 -35 6 -1 15 -4 20 -7 6 -3 24 -5 40 -4 17 2
35 -1 40 -5 6 -4 33 -8 60 -9 28 -1 95 -6 150 -11 220 -20 875 -9 935 17 8 3
31 7 50 8 19 1 53 6 75 11 36 8 47 9 80 5 7 -1 10 -66 10 -183 l0 -183 -25 -1
c-14 -1 -34 3 -45 9 -18 9 -65 22 -120 31 -11 2 -21 5 -22 6 -2 1 -11 3 -20 4
-10 1 -22 4 -28 8 -5 3 -38 9 -73 13 -34 4 -64 10 -66 14 -3 4 -22 6 -43 5
-21 -1 -42 2 -48 6 -5 5 -32 7 -58 6 -27 -1 -51 2 -53 6 -3 4 -36 8 -73 8 -37
0 -70 3 -74 6 -16 17 -627 1 -627 -16 0 -4 -12 -6 -27 -4 -15 1 -32 -1 -38 -5
-5 -5 -17 -9 -25 -9 -16 -1 -96 -20 -120 -30 -8 -3 -18 -6 -22 -6 -3 -1 -10
-4 -14 -8 -4 -5 -15 -8 -25 -8 -10 0 -30 -5 -46 -12 -15 -6 -35 -12 -43 -13
-8 -1 -32 -9 -54 -18 -21 -9 -42 -17 -47 -17 -5 0 -9 -4 -9 -8 0 -4 -17 -14
-37 -22 -21 -7 -56 -27 -77 -44 -51 -40 -136 -126 -136 -138 0 -10 -40 -69
-53 -79 -5 -3 -8 -8 -7 -10 1 -2 -3 -24 -10 -49 -7 -25 -13 -52 -13 -60 0 -8
-3 -19 -7 -25 -15 -21 13 -173 34 -187 6 -4 8 -8 3 -8 -13 0 46 -87 107 -155
32 -36 60 -64 63 -61 3 3 15 -5 27 -18 23 -25 125 -95 171 -117 17 -9 39 -20
50 -26 27 -15 58 -27 68 -25 4 1 7 -3 7 -9 0 -5 4 -8 9 -4 5 3 12 1 16 -5 3
-5 12 -10 20 -10 8 0 26 -5 42 -12 15 -7 33 -13 38 -14 6 -1 12 -3 15 -4 6 -2
17 -5 80 -20 42 -11 79 -18 125 -24 11 -2 27 -6 35 -9 33 -13 223 -28 353 -28
75 0 137 -3 137 -7 0 -4 9 -8 20 -9 11 -1 20 3 20 8 0 6 38 8 95 6 53 -2 98
-1 100 3 3 4 42 8 87 9 113 2 218 12 218 21 0 4 12 6 27 4 15 -1 32 0 38 4 5
4 17 7 25 8 8 0 22 3 30 7 8 3 39 11 68 17 28 7 54 16 57 20 3 4 27 13 55 20
27 7 50 16 50 21 0 5 3 8 8 7 16 -3 64 23 153 84 10 6 20 10 23 9 4 -1 20 12
37 30 16 17 32 29 35 26 4 -3 18 7 33 24 21 23 30 26 39 17 7 -7 12 -9 12 -4
0 4 12 -6 26 -21 14 -15 29 -27 32 -26 12 3 312 -277 312 -291 0 -2 27 -33 60
-68 33 -34 60 -67 60 -73 0 -6 9 -16 20 -23 11 -7 20 -18 20 -26 0 -8 7 -16
15 -20 8 -3 15 -12 15 -20 0 -7 7 -17 16 -20 9 -4 14 -9 11 -12 -6 -6 2 -17
36 -55 9 -10 17 -23 17 -29 0 -5 8 -14 18 -19 9 -6 14 -11 9 -11 -4 0 8 -23
28 -51 19 -28 35 -57 35 -65 0 -8 5 -14 11 -14 5 0 15 -13 20 -30 6 -16 16
-30 22 -30 6 0 7 -3 4 -7 -4 -3 -3 -11 2 -17 18 -22 101 -186 101 -200 0 -8 3
-16 8 -18 8 -3 43 -75 63 -128 7 -19 19 -44 26 -55 7 -11 13 -25 13 -32 0 -6
5 -24 12 -40 7 -15 12 -32 13 -38 1 -5 11 -30 23 -54 12 -25 22 -48 22 -52 0
-4 5 -20 12 -36 6 -15 10 -34 9 -41 -1 -8 3 -20 9 -27 7 -8 9 -19 5 -25 -3 -5
-2 -10 3 -10 9 0 26 -56 23 -74 -1 -4 3 -14 10 -22 6 -8 9 -21 5 -29 -3 -8 -2
-15 3 -15 8 0 26 -75 22 -92 0 -5 4 -8 9 -8 6 0 8 -11 6 -25 -3 -13 0 -27 5
-30 5 -4 9 -21 9 -40 0 -19 4 -36 8 -39 5 -3 7 -19 6 -35 -1 -17 2 -31 6 -31
4 0 8 -15 9 -33 3 -62 13 -142 20 -152 4 -5 6 -35 5 -65 -1 -30 2 -59 6 -65 4
-5 5 -118 4 -250 -5 -285 -7 -342 -17 -351 -4 -4 -7 -27 -7 -51 0 -24 -4 -43
-9 -43 -4 0 -7 -14 -5 -32 2 -17 -1 -37 -7 -44 -6 -8 -9 -23 -6 -34 3 -11 1
-23 -4 -26 -5 -3 -9 -16 -9 -30 0 -13 -4 -24 -10 -24 -5 0 -7 -7 -4 -15 4 -8
1 -22 -6 -30 -7 -8 -10 -21 -7 -30 4 -8 2 -17 -2 -19 -5 -3 -12 -20 -16 -38
-9 -37 -12 -47 -14 -50 -2 -2 -4 -13 -6 -24 -3 -12 -10 -34 -16 -50 -7 -16
-13 -33 -13 -39 -1 -5 -10 -30 -21 -55 -11 -25 -18 -47 -16 -49 1 -2 -1 -7 -6
-10 -7 -5 -30 -60 -37 -86 -1 -5 -13 -30 -26 -55 -12 -25 -22 -46 -21 -48 1
-1 -5 -10 -14 -18 -8 -9 -15 -21 -15 -27 0 -7 -11 -25 -25 -40 -14 -15 -23
-27 -19 -27 3 0 -6 -16 -20 -35 -15 -19 -25 -35 -22 -35 5 0 -2 -9 -49 -61 -8
-9 -15 -19 -15 -23 0 -8 -71 -75 -80 -76 -3 0 -4 30 -4 67 1 38 -2 73 -6 78
-4 6 -7 33 -7 60 0 28 -3 57 -6 65 -6 15 -16 114 -19 178 -1 17 -5 32 -9 32
-4 0 -7 17 -8 38 -1 41 -9 99 -18 122 -3 8 -6 24 -7 35 -1 11 -4 25 -7 30 -4
6 -6 25 -5 43 0 17 -2 32 -6 32 -5 0 -8 11 -8 24 0 14 -4 27 -9 31 -6 3 -8 15
-6 27 3 12 1 26 -4 32 -4 6 -9 18 -9 26 -2 26 -15 75 -21 80 -4 3 -13 37 -20
75 -8 39 -18 75 -23 82 -5 7 -7 17 -3 23 3 5 1 10 -4 10 -6 0 -11 11 -11 24 0
14 -4 27 -10 31 -5 3 -7 12 -3 20 3 8 1 15 -5 15 -6 0 -13 18 -17 40 -4 22
-11 40 -17 40 -6 0 -8 7 -5 15 4 8 2 17 -3 20 -6 4 -10 16 -10 28 0 13 -6 31
-14 42 -7 11 -14 23 -15 27 -3 15 -13 43 -23 68 -6 14 -12 30 -13 35 -2 6 -10
28 -19 50 -10 22 -17 42 -17 45 0 3 -13 30 -29 60 -15 30 -38 75 -50 100 -55
111 -106 205 -112 208 -5 2 -8 8 -8 13 0 6 -18 37 -40 69 -22 32 -40 63 -40
68 0 6 -7 13 -16 16 -8 3 -12 10 -9 16 3 5 1 10 -4 10 -6 0 -11 7 -11 15 0 7
-7 18 -16 23 -9 5 -14 11 -13 13 12 15 -280 369 -417 504 -140 138 -295 279
-315 287 -11 4 -19 11 -19 16 0 4 -14 16 -30 26 -17 9 -41 28 -54 41 -13 13
-26 22 -29 19 -2 -2 -10 2 -17 11 -7 8 -19 15 -27 15 -7 0 -16 7 -19 15 -4 8
-10 15 -14 15 -5 0 -41 19 -82 43 -65 38 -135 73 -261 132 -21 10 -40 15 -43
12 -4 -3 -15 3 -27 13 -11 11 -24 17 -29 14 -5 -3 -16 0 -25 8 -9 7 -17 11
-17 9 -1 -3 -81 16 -106 26 -20 8 -41 14 -62 17 -10 1 -21 5 -24 9 -4 4 -18 7
-30 7 -13 0 -25 4 -28 9 -3 4 -17 6 -31 3 -14 -2 -25 0 -25 6 0 6 -17 9 -40 7
-22 -2 -40 1 -40 7 0 5 -21 9 -47 7 -27 -1 -55 1 -63 4 -54 20 -459 20 -510 0
-8 -3 -27 -5 -42 -4 -15 1 -33 -1 -40 -5 -7 -5 -19 -9 -28 -9 -8 -1 -35 -6
-60 -10 -25 -5 -49 -8 -54 -6 -5 1 -16 -1 -25 -5 -9 -4 -23 -8 -31 -9 -8 -1
-22 -4 -30 -7 -8 -4 -35 -11 -60 -18 -25 -6 -49 -12 -55 -13 -5 -2 -19 -8 -30
-14 -11 -5 -32 -13 -47 -17 -16 -3 -28 -11 -28 -16 0 -5 -7 -7 -15 -4 -8 4
-15 1 -15 -5 0 -6 -3 -10 -7 -9 -13 3 -63 -25 -63 -34 0 -5 -4 -7 -9 -4 -5 3
-14 -1 -21 -9 -7 -8 -16 -12 -21 -9 -5 3 -9 1 -9 -5 0 -5 -19 -24 -43 -40 -46
-33 -147 -125 -147 -135 0 -6 -21 -32 -57 -70 -13 -13 -23 -28 -23 -34 0 -6
-6 -15 -12 -19 -7 -4 -29 -39 -48 -78 -19 -38 -37 -72 -40 -75 -9 -8 -35 -74
-32 -82 1 -5 -3 -8 -9 -8 -6 0 -9 -9 -6 -20 3 -11 2 -20 -3 -20 -7 0 -19 -28
-24 -55 -2 -11 -26 -92 -33 -115 -3 -8 -7 -26 -9 -40 -1 -14 -7 -43 -13 -65
-6 -22 -11 -57 -11 -77 0 -20 -4 -39 -8 -42 -4 -2 -7 -42 -6 -88 0 -46 -3 -91
-8 -101 -6 -11 -6 -23 0 -30 5 -7 8 -54 8 -104 -1 -51 2 -93 5 -93 3 0 9 -28
12 -62 4 -35 9 -74 13 -88 3 -14 7 -32 8 -40 1 -9 5 -20 8 -25 3 -6 9 -31 12
-57 4 -26 12 -50 17 -54 6 -3 8 -12 5 -20 -3 -7 -1 -16 4 -19 6 -4 10 -14 10
-23 0 -10 9 -34 20 -55 11 -20 20 -43 20 -51 0 -8 6 -21 13 -28 7 -7 12 -20
12 -28 0 -8 2 -17 5 -20 5 -5 39 -67 79 -145 9 -16 21 -33 26 -37 6 -4 7 -8 3
-8 -4 0 6 -23 22 -50 16 -27 27 -50 25 -50 -8 0 68 -144 80 -152 5 -4 7 -8 3
-8 -4 0 6 -22 22 -49 17 -26 30 -53 30 -60 0 -6 5 -11 11 -11 5 0 8 -3 6 -8
-3 -4 10 -30 29 -57 18 -28 34 -56 34 -62 0 -7 5 -13 10 -13 6 0 19 -20 30
-45 11 -25 24 -45 30 -45 5 0 10 -5 10 -11 0 -6 23 -40 50 -75 28 -35 48 -64
46 -64 -3 0 11 -17 29 -38 19 -20 35 -40 35 -43 0 -3 10 -18 23 -32 12 -14 45
-51 72 -83 97 -111 328 -337 337 -329 2 3 22 -13 43 -35 22 -22 45 -40 51 -40
7 0 19 -8 26 -18 14 -18 254 -182 268 -182 4 0 13 -7 20 -15 7 -8 16 -12 21
-9 5 3 9 0 9 -5 0 -6 7 -11 15 -11 9 0 18 -6 21 -14 3 -8 12 -12 20 -9 8 3 14
0 14 -7 0 -6 5 -8 10 -5 6 3 10 3 10 -2 0 -4 33 -24 73 -43 39 -19 73 -38 75
-42 2 -4 10 -4 18 -1 8 3 14 -1 14 -8 0 -7 2 -10 6 -7 3 3 42 -10 87 -29 68
-29 134 -53 157 -58 3 0 14 -6 25 -12 11 -6 36 -14 55 -18 19 -4 41 -12 48
-17 6 -6 12 -8 12 -4 0 3 23 -3 52 -14 28 -10 55 -17 59 -14 4 2 10 0 14 -5 3
-6 26 -13 50 -17 25 -3 48 -10 51 -15 3 -5 10 -7 15 -3 5 3 15 1 22 -4 7 -5
19 -10 27 -10 8 -1 44 -8 80 -17 36 -9 72 -17 80 -19 8 -1 22 -5 30 -8 8 -4
22 -6 30 -6 8 0 38 -5 65 -12 28 -6 69 -11 93 -12 23 0 42 -3 42 -7 0 -4 23
-7 50 -6 28 1 53 -2 56 -7 3 -5 24 -8 47 -7 23 1 83 -2 132 -6 50 -4 113 -8
140 -9 49 -1 50 -1 47 -31 -7 -85 -15 -131 -22 -138 -4 -5 -5 -25 -3 -44 3
-24 2 -33 -6 -28 -8 4 -10 -5 -7 -29 2 -20 0 -38 -5 -41 -5 -4 -9 -16 -9 -29
0 -12 -3 -26 -7 -30 -4 -3 -8 -14 -10 -24 -9 -53 -10 -58 -30 -110 -3 -9 -7
-20 -8 -24 -2 -5 -4 -10 -5 -13 -1 -3 -3 -8 -5 -12 -3 -14 -16 -47 -28 -73 -6
-14 -11 -27 -12 -30 -6 -27 -18 -50 -26 -50 -5 0 -8 -3 -7 -7 1 -10 -32 -86
-41 -93 -3 -3 -14 -21 -24 -40 -28 -55 -50 -91 -72 -115 -29 -32 -59 -69 -60
-75 0 -10 -118 -115 -136 -122 -10 -4 -19 -12 -19 -17 0 -6 -11 -13 -24 -17
-14 -3 -27 -12 -30 -21 -3 -8 -10 -11 -16 -8 -5 3 -10 2 -10 -4 0 -5 -14 -12
-31 -16 -17 -4 -33 -13 -36 -21 -3 -9 -13 -12 -24 -9 -11 4 -19 2 -19 -4 0 -5
-16 -13 -35 -17 -19 -3 -35 -9 -35 -13 0 -4 -6 -8 -12 -9 -38 -5 -54 -9 -63
-14 -6 -3 -31 -9 -58 -13 -26 -4 -49 -11 -52 -15 -2 -4 -25 -6 -50 -5 -25 2
-45 -1 -45 -5 0 -5 -30 -8 -67 -8 -64 1 -148 -9 -166 -19 -4 -2 -4 -10 0 -16
4 -7 8 -20 9 -29 1 -10 3 -20 4 -23 1 -3 3 -9 4 -14 0 -5 4 -13 9 -17 4 -4 7
-16 7 -26 0 -10 4 -18 9 -18 5 0 7 -9 4 -20 -3 -11 -1 -20 5 -20 6 0 14 -10
18 -22 4 -13 14 -30 24 -38 9 -8 19 -23 23 -32 3 -10 13 -18 20 -18 8 0 22 -9
33 -21 24 -27 84 -56 132 -64 21 -3 49 -16 63 -28 30 -28 73 -47 103 -47 12 0
26 -3 29 -7 9 -8 237 -10 237 -2 0 3 34 9 75 12 41 3 80 9 87 14 7 4 21 8 31
9 9 1 20 3 25 4 4 2 12 4 17 5 38 7 108 31 155 53 30 14 58 25 63 24 4 -1 7 3
7 9 0 6 7 9 15 5 8 -3 15 -1 15 4 0 6 7 10 15 10 8 0 15 4 15 10 0 5 3 9 8 8
8 -3 64 32 74 47 4 5 8 7 8 3 1 -37 380 332 380 369 0 7 4 13 9 13 5 0 16 16
25 35 9 19 22 35 27 35 6 0 9 5 7 12 -2 6 7 22 20 35 12 13 20 28 17 33 -3 6
-1 10 4 10 6 0 11 6 11 14 0 8 3 16 8 18 7 3 45 80 43 86 -1 1 5 10 14 18 8 9
15 22 15 30 0 8 4 14 10 14 5 0 9 3 8 8 -1 4 4 20 10 35 7 16 12 33 12 38 0 5
5 9 10 9 6 0 10 4 10 9 0 5 5 22 12 38 6 15 10 32 9 37 -1 5 2 12 6 15 7 6 32
63 36 86 2 6 5 15 9 20 3 6 9 29 13 52 4 24 11 45 16 49 5 3 7 10 3 15 -3 5
-1 15 4 22 14 18 28 78 35 150 1 15 5 27 9 27 5 0 8 15 8 34 0 19 4 37 9 40 5
3 7 20 5 37 -2 18 0 37 5 43 5 6 8 26 6 44 -1 17 2 32 7 32 4 0 8 29 8 64 0
36 4 67 9 71 5 3 8 17 5 30 -2 14 0 26 6 26 19 3 25 4 35 11 6 3 28 9 50 13
22 4 49 13 60 19 11 6 25 11 30 12 10 1 19 4 80 27 17 7 32 12 35 12 3 0 11 4
18 8 6 5 12 5 12 0 0 -4 4 -3 8 2 4 6 36 23 72 40 36 16 76 38 89 47 13 10 28
18 34 18 10 0 24 8 111 66 16 10 36 24 45 29 9 6 23 16 31 22 50 43 103 83
108 83 4 0 39 30 78 68 39 37 106 99 148 138 42 39 76 75 76 78 0 4 18 26 41
49 63 65 69 73 69 85 0 6 9 16 20 22 11 6 20 17 20 25 0 8 8 19 17 24 10 6 14
11 10 11 -5 0 -2 7 5 15 27 30 38 44 38 51 0 3 9 18 20 34 11 15 17 30 13 34
-3 3 -1 6 5 6 7 0 12 7 12 15 0 8 4 15 10 15 5 0 9 3 8 8 -1 4 9 27 22 52 13
25 23 48 22 53 -1 4 3 7 8 7 6 0 10 7 10 15 0 8 4 15 9 15 6 0 8 9 6 20 -2 11
0 20 5 20 5 0 12 11 16 25 3 14 11 25 16 25 6 0 8 7 5 15 -4 8 -2 17 3 20 6 4
10 14 10 23 0 9 7 30 15 46 8 15 13 32 10 36 -3 5 3 24 13 42 10 18 17 39 14
46 -2 7 1 19 7 26 6 7 9 21 5 30 -3 9 -2 16 4 16 5 0 13 19 16 42 9 64 14 93
16 93 3 0 5 10 20 115 6 41 11 104 13 140 1 36 5 70 8 75 9 15 8 435 -1 435
-5 0 -7 32 -6 71 1 38 -1 72 -6 75 -4 3 -8 32 -8 65 0 32 -4 59 -9 59 -4 0 -7
17 -5 37 1 20 0 42 -4 48 -4 5 -8 24 -9 40 -1 17 -6 55 -12 85 -6 30 -13 66
-16 80 -2 14 -6 32 -8 40 -2 8 -7 33 -11 55 -4 22 -10 47 -13 55 -4 8 -7 26
-9 40 -1 14 -3 26 -4 28 -4 3 -6 14 -15 60 -4 23 -11 42 -15 42 -5 0 -7 11 -5
25 1 14 -1 25 -5 25 -4 0 -11 20 -14 45 -4 25 -11 45 -17 45 -5 0 -8 3 -7 8 2
12 -14 66 -25 80 -5 6 -6 12 -2 12 4 0 2 7 -5 15 -6 8 -9 19 -5 25 3 5 1 10
-4 10 -6 0 -11 7 -11 15 0 8 -5 15 -11 15 -5 0 -7 4 -4 10 3 5 -1 20 -9 32 -9
12 -16 30 -16 40 0 10 -5 18 -12 18 -6 0 -8 3 -5 6 7 7 -19 59 -40 82 -7 7
-13 18 -13 24 0 5 -16 36 -35 69 -19 32 -32 59 -29 59 3 0 -9 21 -27 48 -64
94 -69 101 -69 112 0 5 -4 10 -8 10 -5 0 -15 12 -23 28 -8 15 -38 59 -66 99
-29 40 -53 74 -53 77 0 3 -12 18 -26 33 -50 55 -54 60 -54 69 0 5 -9 15 -20
22 -11 7 -20 18 -20 25 0 7 -9 18 -20 25 -11 7 -20 17 -20 23 0 6 -17 28 -37
49 -36 36 -182 192 -236 253 -13 15 -28 27 -33 27 -5 0 -49 39 -99 87 -49 47
-101 93 -115 102 -14 9 -35 24 -45 34 -46 41 -93 77 -101 77 -5 0 -20 12 -33
25 -13 14 -29 25 -36 25 -7 0 -15 7 -19 15 -3 8 -12 15 -19 15 -8 0 -20 7 -27
15 -7 9 -15 13 -17 11 -5 -5 -18 4 -53 36 -10 9 -21 13 -25 10 -3 -4 -9 -2
-13 3 -9 12 -31 25 -161 92 -58 30 -107 56 -109 58 -3 2 3 16 12 30 9 14 13
25 9 25 -5 0 -3 4 2 8 15 11 55 89 55 106 0 9 5 16 11 16 5 0 7 5 4 10 -4 6
-2 17 4 24 7 8 11 18 10 22 -3 11 10 64 20 84 4 8 7 32 6 53 -1 20 2 37 6 37
5 0 6 89 3 198 -5 227 -9 297 -20 332 -4 14 -4 22 1 18 4 -4 24 2 43 13 20 10
42 19 49 19 7 0 13 3 13 8 0 4 18 16 40 26 22 11 40 22 40 25 0 3 15 12 33 20
17 8 44 27 59 43 14 16 29 28 32 26 3 -2 23 14 45 35 21 20 43 37 47 37 10 0
113 98 108 103 -2 2 21 26 51 52 30 27 55 52 55 57 0 4 15 23 33 42 17 19 43
49 57 67 14 17 35 41 47 52 12 11 20 24 17 28 -2 4 5 13 16 19 11 6 20 17 20
24 0 8 7 16 15 20 8 3 15 12 15 20 0 7 7 16 15 20 8 3 15 11 15 18 0 7 16 35
34 63 19 27 32 53 29 57 -2 5 1 8 6 8 6 0 11 6 11 14 0 8 7 21 15 30 9 8 14
19 13 23 -1 4 6 23 15 41 10 17 15 32 11 32 -4 0 -1 7 6 15 7 8 9 15 5 15 -4
0 -3 6 3 13 5 6 13 31 17 55 4 23 11 42 16 42 5 0 8 3 7 8 -3 13 13 107 21
122 4 8 7 34 5 58 -1 23 2 42 6 42 9 0 10 401 2 415 -4 6 -7 30 -8 55 -1 25
-4 52 -7 60 -9 23 -21 94 -18 108 1 6 -3 12 -8 12 -5 0 -8 9 -6 20 2 11 0 22
-4 25 -5 2 -12 25 -15 50 -4 25 -11 45 -16 45 -4 0 -7 11 -5 25 1 14 -2 25 -6
25 -5 0 -9 8 -9 18 0 10 -3 22 -7 26 -5 4 -8 11 -9 14 0 4 -6 21 -13 37 -17
42 -22 60 -21 63 0 1 -6 10 -15 18 -8 9 -15 22 -15 30 0 8 -5 14 -10 14 -6 0
-9 3 -8 8 1 4 -4 20 -10 35 -7 16 -12 33 -12 38 0 5 -4 9 -9 9 -5 0 -14 14
-21 30 -7 17 -17 30 -22 30 -5 0 -8 6 -6 12 3 7 1 17 -4 23 -5 5 -20 24 -33
40 -14 17 -25 36 -25 43 0 6 -4 12 -10 12 -5 0 -10 7 -10 15 0 8 -4 15 -10 15
-5 0 -10 6 -10 14 0 8 -13 24 -30 37 -16 13 -30 28 -30 33 0 4 -18 25 -40 46
-22 21 -40 41 -40 45 0 9 -48 55 -58 55 -4 0 -37 29 -74 64 -37 34 -70 61 -73
58 -3 -3 -12 4 -21 16 -8 12 -20 22 -26 22 -9 0 -28 14 -85 60 -7 6 -15 10
-19 10 -3 0 -19 9 -35 21 -16 11 -29 17 -29 14 0 -4 -12 3 -26 14 -15 12 -33
21 -40 21 -8 0 -14 5 -14 11 0 5 -4 8 -9 4 -5 -3 -12 -1 -15 4 -9 14 -83 50
-90 44 -3 -4 -6 -2 -6 4 0 10 -37 27 -54 24 -4 -1 -14 3 -20 9 -7 5 -16 7 -19
3 -4 -3 -7 -1 -7 5 0 6 -16 14 -35 18 -19 3 -35 9 -35 13 0 4 -8 7 -17 8 -24
2 -46 7 -58 14 -9 6 -55 19 -80 24 -5 1 -12 3 -15 4 -6 3 -45 10 -85 15 -16 2
-37 6 -45 9 -14 5 -87 15 -170 23 -73 7 -270 10 -270 4 0 -3 -20 -11 -43 -17
-43 -12 -107 -61 -107 -81 0 -6 -8 -9 -17 -8 -10 2 -25 0 -33 -4 -8 -4 -32
-15 -52 -23 -39 -17 -78 -46 -78 -59 0 -5 -9 -17 -20 -28 -11 -11 -20 -27 -20
-35 0 -8 -5 -15 -11 -15 -5 0 -7 -5 -4 -10 4 -6 2 -16 -3 -23 -8 -9 -10 -160
-3 -187 1 -6 22 -8 171 -15 41 -2 111 -9 155 -15 44 -6 95 -11 113 -11 17 -1
32 -5 32 -9 0 -4 10 -6 23 -6 12 1 27 -1 32 -4 6 -4 39 -13 75 -20 36 -6 70
-15 75 -19 6 -5 33 -14 60 -21 28 -7 55 -17 61 -21 6 -5 14 -6 17 -2 4 3 7 1
7 -5 0 -7 3 -11 8 -10 10 2 65 -24 73 -35 3 -5 9 -8 13 -8 12 2 74 -27 80 -38
4 -6 12 -9 17 -6 5 4 9 1 9 -4 0 -6 6 -11 13 -11 8 0 22 -9 32 -20 10 -11 20
-18 23 -16 5 6 16 -3 83 -63 27 -24 49 -41 49 -37 0 6 45 -33 122 -106 15 -15
28 -31 28 -35 0 -5 12 -20 28 -34 31 -29 67 -70 69 -82 1 -4 8 -14 15 -22 28
-31 37 -43 53 -76 10 -19 29 -48 41 -65 13 -17 21 -34 17 -37 -3 -4 -1 -7 5
-7 7 0 12 -6 12 -13 0 -7 9 -28 19 -48 11 -20 23 -53 26 -73 4 -20 11 -36 17
-36 5 0 7 -4 3 -9 -3 -5 -1 -12 4 -15 4 -3 12 -25 16 -48 10 -58 11 -62 15
-68 1 -3 4 -18 6 -35 2 -16 8 -73 14 -125 6 -52 11 -106 10 -120 -5 -110 -13
-187 -21 -196 -4 -5 -6 -23 -3 -38 2 -16 -1 -35 -8 -44 -7 -8 -11 -17 -10 -19
5 -5 -9 -86 -17 -98 -3 -5 -6 -17 -7 -25 0 -8 -4 -22 -7 -30 -4 -8 -11 -33
-16 -55 -5 -22 -16 -58 -25 -80 -8 -22 -15 -50 -16 -62 0 -13 -5 -23 -10 -23
-6 0 -9 -3 -8 -7 1 -5 -14 -34 -35 -66 -20 -31 -37 -62 -37 -67 0 -6 -3 -10
-7 -10 -5 0 -30 -27 -57 -61 -44 -55 -75 -86 -189 -193 -21 -20 -43 -34 -48
-30 -5 3 -7 10 -4 15 4 5 2 9 -3 9 -5 0 -13 20 -16 45 -4 25 -11 45 -17 45 -5
0 -8 3 -7 8 1 4 -4 20 -10 35 -7 16 -12 33 -12 38 0 5 -5 9 -10 9 -6 0 -9 3
-8 8 3 15 -15 62 -24 62 -5 0 -6 5 -3 10 3 6 2 10 -3 10 -6 0 -13 16 -16 35
-4 19 -11 35 -15 35 -5 0 -16 18 -25 40 -9 22 -20 40 -25 40 -5 0 -12 11 -15
25 -4 14 -11 25 -17 25 -6 0 -8 4 -5 9 3 5 -1 14 -9 21 -8 7 -15 19 -15 26 0
8 -5 14 -11 14 -5 0 -8 4 -5 9 3 5 -1 11 -9 15 -8 3 -15 12 -15 21 0 8 -5 15
-10 15 -6 0 -15 11 -20 25 -5 14 -14 25 -20 25 -5 0 -10 7 -10 15 0 8 -9 20
-20 27 -11 7 -20 17 -20 22 0 9 -4 14 -54 69 -14 15 -26 31 -26 35 0 19 -377
383 -456 441 -22 15 -48 38 -58 50 -11 11 -23 21 -29 21 -8 0 -57 37 -98 75
-9 8 -19 15 -22 15 -4 0 -30 15 -59 34 -29 18 -57 34 -63 35 -5 2 -14 9 -18
17 -4 8 -15 14 -22 14 -8 0 -15 5 -15 10 0 6 -9 10 -19 10 -11 0 -21 4 -23 9
-4 10 -240 127 -250 123 -5 -1 -8 3 -8 10 0 6 -3 9 -6 5 -3 -3 -30 5 -60 18
-30 13 -54 21 -54 18 0 -3 -6 -1 -12 4 -7 6 -34 16 -60 24 -27 7 -48 17 -48
22 0 5 -9 5 -20 2 -12 -4 -20 -2 -20 5 0 7 -7 10 -15 7 -8 -4 -17 -2 -20 3 -4
6 -19 10 -35 10 -16 0 -31 4 -35 10 -3 5 -12 7 -20 3 -8 -3 -15 -1 -15 5 0 6
-8 9 -17 8 -10 -2 -25 1 -33 5 -16 9 -130 30 -167 32 -13 1 -23 5 -23 9 0 4
-10 8 -22 8 -37 -1 -142 11 -158 17 -8 3 -39 5 -69 5 -29 -1 -59 2 -65 6 -13
8 -566 10 -566 1 0 -3 -17 -6 -38 -7 -21 -1 -62 -7 -92 -13 -30 -6 -63 -11
-72 -11 -10 1 -18 -3 -18 -8 0 -4 -7 -7 -16 -6 -9 1 -46 -8 -83 -21 -36 -13
-70 -26 -76 -27 -5 -2 -23 -8 -38 -14 -16 -7 -33 -12 -38 -12 -5 0 -9 -5 -9
-11 0 -5 -4 -7 -10 -4 -5 3 -10 3 -10 -2 0 -4 -15 -14 -32 -22 -18 -8 -35 -17
-38 -21 -3 -3 -32 -21 -65 -40 -33 -19 -62 -36 -65 -39 -3 -3 -18 -13 -35 -21
-16 -8 -34 -21 -38 -27 -4 -7 -20 -19 -35 -27 -29 -15 -117 -96 -105 -96 4 0
-7 -13 -25 -29 -17 -17 -32 -34 -32 -40 0 -5 -8 -15 -17 -20 -10 -6 -14 -11
-10 -11 5 0 2 -7 -5 -15 -27 -30 -38 -45 -40 -52 -5 -26 -24 -63 -31 -63 -4 0
-5 -4 -2 -10 3 -5 -1 -20 -9 -32 -9 -12 -16 -30 -16 -40 0 -10 -4 -18 -9 -18
-5 0 -8 -8 -6 -17 1 -10 -2 -23 -7 -30 -5 -7 -7 -17 -4 -22 4 -5 2 -12 -4 -16
-5 -3 -10 -24 -10 -46 0 -21 -4 -39 -10 -39 -5 0 -10 16 -10 35 0 19 -4 35 -9
35 -5 0 -7 9 -4 20 3 11 1 26 -4 33 -5 6 -9 19 -8 27 0 8 -2 17 -5 20 -7 7
-32 72 -33 88 0 6 -4 12 -9 12 -4 0 -8 6 -8 14 0 8 -7 22 -16 30 -8 9 -13 16
-10 16 10 0 -67 113 -94 138 -14 13 -25 27 -25 31 0 4 -25 28 -55 54 -30 25
-64 54 -75 64 -11 10 -33 25 -50 33 -16 8 -34 19 -40 23 -5 5 -32 22 -60 38
-56 33 -78 46 -116 71 -14 10 -29 15 -33 11 -3 -3 -6 -1 -6 6 0 8 -7 11 -15 7
-8 -3 -15 -1 -15 4 0 6 -7 10 -15 10 -8 0 -15 5 -15 11 0 5 -4 7 -10 4 -5 -3
-16 -3 -22 2 -7 4 -15 8 -18 9 -3 0 -12 3 -20 7 -46 17 -97 31 -112 28 -10 -1
-18 2 -18 8 0 6 -10 11 -22 10 -13 0 -43 5 -68 11 -25 6 -60 11 -79 10 -18 0
-38 3 -45 8 -12 9 -555 10 -571 1 -5 -4 -30 -7 -55 -8 -25 -1 -81 -6 -125 -11
-44 -6 -87 -10 -95 -11 -8 0 -22 -3 -30 -7 -8 -3 -26 -7 -40 -8 -52 -6 -146
-25 -160 -33 -8 -4 -23 -7 -32 -5 -10 1 -18 -1 -18 -6 0 -4 -22 -11 -50 -15
-27 -4 -50 -10 -50 -14 0 -4 -8 -7 -17 -8 -20 -1 -38 -6 -68 -17 -11 -5 -36
-14 -56 -21 -20 -8 -39 -11 -43 -8 -3 4 -6 1 -6 -6 0 -6 -6 -11 -12 -10 -7 1
-31 -6 -53 -16 -22 -10 -45 -19 -51 -21 -6 -1 -49 -20 -97 -43 -48 -23 -90
-42 -94 -42 -5 -1 -20 -10 -35 -20 -14 -10 -31 -19 -37 -19 -6 0 -11 -5 -11
-11 0 -5 -4 -8 -9 -5 -5 3 -14 -1 -21 -9 -7 -8 -19 -15 -27 -15 -7 0 -16 -7
-19 -15 -4 -8 -10 -13 -14 -10 -4 3 -13 -2 -20 -10 -7 -8 -18 -15 -26 -15 -7
0 -17 -6 -21 -13 -4 -6 -21 -19 -38 -27 -31 -16 -46 -27 -100 -72 -18 -16 -37
-28 -42 -28 -5 0 -25 -16 -44 -36 -18 -20 -41 -39 -50 -43 -9 -3 -72 -59 -140
-123 -68 -64 -150 -141 -181 -170 -32 -30 -58 -57 -58 -61 0 -4 -15 -22 -33
-40 -44 -43 -117 -133 -117 -143 0 -5 -9 -15 -20 -22 -11 -7 -20 -17 -20 -22
0 -6 -8 -19 -17 -29 -30 -33 -43 -50 -43 -56 0 -4 -14 -27 -32 -53 -18 -26
-31 -48 -30 -50 2 -1 -4 -10 -13 -18 -8 -9 -15 -21 -15 -29 0 -7 -7 -15 -15
-19 -8 -3 -15 -12 -15 -21 0 -8 -5 -15 -11 -15 -5 0 -8 -4 -4 -9 3 -5 1 -12
-5 -16 -6 -4 -8 -11 -5 -16 4 -5 2 -9 -2 -9 -7 0 -64 -117 -69 -140 0 -3 -9
-23 -19 -45 -10 -22 -18 -43 -17 -47 1 -5 -3 -8 -9 -8 -6 0 -9 -7 -6 -15 4 -8
2 -17 -3 -20 -6 -4 -10 -17 -10 -31 0 -13 -5 -24 -11 -24 -6 0 -9 -7 -5 -15 9
-25 -11 -17 -52 23 -22 20 -69 65 -105 100 -37 34 -64 62 -61 62 3 0 -6 11
-20 23 -14 13 -23 26 -20 29 3 3 -6 15 -20 26 -15 11 -26 23 -26 26 0 3 -17
32 -37 63 -21 32 -36 61 -35 66 1 4 -2 7 -8 7 -5 0 -10 11 -10 24 0 14 -4 27
-10 31 -5 3 -7 12 -4 20 3 7 -1 24 -9 37 -8 13 -18 41 -22 63 -4 22 -10 44
-13 50 -7 11 -10 22 -16 67 -3 15 -8 33 -12 40 -5 7 -7 23 -5 36 1 12 -2 22
-7 22 -6 0 -9 18 -8 40 2 23 -1 43 -6 46 -4 3 -8 38 -8 79 0 41 -4 76 -8 79
-9 5 -7 34 20 276 2 14 6 30 9 35 4 6 10 34 14 63 4 28 11 52 17 52 5 0 7 4 4
9 -3 5 1 22 9 37 8 16 15 37 15 47 0 9 5 17 10 17 6 0 9 3 8 8 -1 4 4 20 10
35 7 16 12 32 12 36 0 4 14 27 30 50 17 23 38 57 47 76 9 19 20 35 25 35 4 0
8 7 8 15 0 7 8 19 18 24 9 6 13 11 8 11 -5 0 3 11 18 25 15 14 24 25 21 25 -4
0 11 18 32 39 132 136 161 163 183 176 14 7 38 27 54 44 17 17 36 31 43 31 8
0 16 7 19 15 4 8 10 13 14 10 4 -2 15 4 25 15 10 11 24 20 32 20 7 0 13 5 13
12 0 6 3 8 6 5 4 -3 18 3 32 13 13 11 31 20 38 20 8 0 14 5 14 11 0 5 5 7 11
3 6 -3 14 -3 18 2 7 11 63 38 74 36 4 -1 7 3 7 9 0 6 7 9 15 5 8 -3 15 -2 15
2 0 4 21 14 48 22 26 7 50 14 55 15 4 2 8 3 10 5 4 3 149 39 182 44 11 2 22 5
25 6 6 4 42 8 123 16 31 3 57 9 57 12 0 4 41 6 91 4 50 -1 96 1 103 6 6 4 28
7 49 6 20 -1 41 4 45 10 11 17 11 170 0 184 -6 6 -7 12 -3 12 4 0 2 6 -4 13
-6 8 -8 17 -4 20 3 4 1 7 -5 7 -7 0 -12 5 -12 10 0 24 -69 94 -105 107 -16 6
-39 14 -50 19 -11 4 -25 8 -31 8 -6 1 -28 18 -48 38 -20 20 -53 42 -74 49 -20
6 -41 14 -47 18 -15 8 -236 8 -241 -1z m2450 -1645 c3 -4 32 -8 64 -9 120 -4
177 -36 250 -141 12 -18 22 -38 22 -46 0 -7 3 -17 8 -21 4 -4 8 -12 8 -17 1
-5 3 -10 4 -11 8 -9 13 -66 13 -155 0 -126 -3 -155 -15 -170 -5 -6 -8 -17 -7
-25 1 -7 -4 -26 -11 -43 -7 -16 -12 -36 -11 -42 1 -7 -3 -13 -9 -13 -5 0 -9
-3 -7 -8 3 -11 -55 -145 -70 -160 -7 -7 -13 -20 -13 -27 0 -7 -7 -21 -16 -29
-8 -9 -13 -16 -10 -16 4 0 -10 -22 -29 -50 -19 -27 -35 -54 -35 -60 0 -5 -4
-10 -10 -10 -5 0 -10 -7 -10 -15 0 -7 -8 -19 -17 -24 -10 -6 -14 -11 -10 -11
8 0 -1 -13 -35 -51 -10 -10 -18 -23 -18 -27 0 -12 -71 -94 -77 -89 -2 3 -18
-8 -34 -23 -17 -15 -43 -34 -57 -41 -15 -8 -29 -16 -32 -19 -7 -7 -64 -44 -70
-45 -14 -3 -66 -31 -77 -42 -7 -6 -29 -17 -48 -23 -19 -6 -35 -16 -35 -20 0
-5 -7 -7 -15 -4 -8 4 -15 1 -15 -5 0 -7 -6 -11 -12 -10 -7 2 -31 -6 -53 -16
-22 -10 -44 -19 -50 -21 -5 -2 -28 -10 -50 -18 -22 -8 -48 -15 -57 -16 -10 0
-18 -4 -18 -9 0 -6 -8 -10 -17 -10 -20 1 -99 -18 -123 -28 -8 -3 -23 -7 -32
-8 -10 -2 -19 -4 -20 -5 -2 -1 -12 -4 -23 -6 -11 -1 -49 -8 -85 -15 -36 -6
-73 -11 -82 -11 -10 0 -18 -3 -18 -8 0 -5 -18 -7 -40 -5 -22 2 -42 0 -45 -4
-5 -9 -208 -26 -262 -22 -18 1 -33 -1 -33 -6 0 -4 -117 -8 -260 -8 -143 0
-260 4 -260 8 0 5 -21 8 -47 7 -116 -4 -120 -3 -115 30 2 17 9 30 14 30 5 0 6
5 3 10 -4 6 -1 18 6 26 6 8 9 17 6 21 -4 3 3 19 14 34 11 16 17 33 14 39 -3 5
-2 10 4 10 6 0 14 12 17 28 4 15 13 36 21 48 7 11 10 24 6 27 -3 4 -1 7 5 7 7
0 12 7 12 15 0 8 5 15 12 15 6 0 9 3 5 6 -3 3 7 27 23 53 15 27 31 58 35 69 3
12 10 22 16 22 5 0 15 16 23 35 9 20 35 62 60 94 25 32 42 61 39 65 -4 3 -1 6
6 6 6 0 16 11 21 25 5 14 14 25 20 25 5 0 10 6 10 13 0 7 9 19 20 27 11 8 20
20 20 27 0 7 9 17 20 23 11 6 20 17 20 24 0 8 16 26 35 42 19 15 35 31 35 36
0 11 265 275 309 308 19 14 47 37 64 52 16 15 37 30 47 33 10 3 21 13 24 21 3
8 10 13 14 10 5 -3 20 6 32 19 13 14 29 25 37 25 7 0 13 5 13 10 0 6 6 10 14
10 7 0 19 7 26 15 7 8 16 13 20 10 4 -3 10 1 13 9 3 8 19 17 36 21 17 4 31 11
31 16 0 5 5 9 10 9 6 0 27 11 48 23 20 13 45 23 55 21 9 -1 17 1 17 5 0 7 60
34 73 32 4 0 7 3 7 8 0 6 9 8 20 6 11 -2 20 0 20 4 0 8 100 38 113 33 4 -1 7
2 7 6 0 5 6 9 13 10 6 1 48 8 92 17 44 8 94 16 110 18 17 1 35 5 40 8 6 3 31
5 58 5 26 -1 53 2 60 6 15 10 151 11 161 1z m2751 -5 c28 -2 55 -6 60 -10 6
-3 25 -5 43 -3 18 1 34 -1 37 -5 3 -5 33 -11 67 -15 35 -4 68 -10 73 -13 6 -4
15 -8 20 -9 6 -1 17 -4 25 -6 39 -9 106 -32 110 -37 3 -3 12 -6 20 -6 8 -1 38
-11 65 -24 28 -13 54 -23 59 -22 5 2 12 -1 15 -5 3 -5 39 -25 79 -46 41 -20
86 -46 102 -57 15 -11 32 -20 37 -20 5 0 26 -15 46 -34 20 -18 39 -30 43 -27
3 3 11 -1 17 -10 7 -9 23 -22 37 -29 13 -7 33 -24 43 -37 10 -12 24 -23 32
-23 13 0 306 -289 375 -370 19 -23 43 -49 53 -58 9 -9 17 -20 17 -24 0 -7 8
-17 55 -69 8 -9 15 -21 15 -27 0 -7 5 -12 10 -12 6 0 10 -5 10 -11 0 -6 20
-36 44 -67 23 -31 51 -73 61 -92 10 -19 21 -37 24 -40 6 -5 21 -31 74 -135 17
-33 34 -62 38 -65 4 -3 11 -19 15 -35 4 -17 14 -40 21 -52 8 -12 12 -27 8 -33
-3 -5 -2 -10 4 -10 8 0 20 -23 27 -52 1 -5 3 -10 4 -13 1 -3 3 -8 5 -12 1 -5
4 -15 7 -23 20 -50 17 -60 -15 -60 -18 -1 -59 -3 -92 -5 -91 -7 -542 -7 -610
0 -150 14 -211 18 -219 16 -5 -1 -16 1 -25 5 -9 4 -32 8 -51 10 -19 2 -42 5
-50 7 -8 2 -37 7 -65 11 -27 4 -57 10 -65 13 -15 6 -36 10 -80 15 -14 2 -29 6
-35 10 -5 3 -37 11 -70 18 -33 7 -66 17 -72 22 -7 6 -20 8 -28 4 -8 -3 -15 -1
-15 4 0 6 -8 10 -18 10 -10 0 -28 7 -40 16 -12 8 -22 13 -22 10 0 -3 -24 6
-54 19 -30 13 -57 21 -60 18 -3 -4 -6 -1 -6 5 0 7 -3 11 -7 11 -15 -3 -73 23
-73 32 0 5 -3 8 -7 7 -11 -2 -87 35 -91 45 -2 4 -10 7 -18 7 -8 0 -14 4 -14 9
0 5 -11 12 -25 15 -14 4 -25 11 -25 16 0 6 -6 10 -13 10 -7 0 -28 13 -47 28
-19 16 -45 34 -57 41 -13 6 -45 42 -73 79 -27 37 -59 78 -70 92 -11 14 -20 31
-20 38 0 6 -5 12 -11 12 -5 0 -8 4 -5 9 4 5 3 11 -2 13 -10 4 -102 149 -102
160 0 5 -11 25 -23 46 -13 20 -22 43 -20 50 3 6 0 12 -6 12 -6 0 -11 4 -11 9
0 5 -4 20 -9 33 -5 13 -9 26 -10 30 -1 4 -10 28 -21 52 -10 24 -16 47 -13 49
3 3 1 12 -3 19 -13 19 -16 59 -17 173 0 88 5 144 13 153 1 1 3 6 4 11 0 5 4
13 9 17 4 4 7 14 7 21 0 8 10 28 22 46 73 105 132 138 250 141 31 1 61 5 65
10 4 4 44 5 88 2 44 -3 103 -6 130 -8z m-3686 -2929 c30 -5 72 -18 93 -29 21
-11 38 -17 38 -14 0 3 6 -1 13 -8 16 -16 20 -65 7 -73 -6 -4 -8 -10 -5 -15 3
-4 -2 -10 -10 -14 -8 -3 -15 -13 -15 -21 0 -9 -4 -14 -9 -11 -5 3 -15 -1 -22
-10 -14 -17 -129 -76 -129 -67 0 3 -6 1 -13 -5 -7 -6 -29 -13 -48 -16 -19 -3
-47 -9 -64 -14 -16 -5 -36 -7 -43 -5 -7 3 -18 1 -25 -4 -7 -5 -34 -9 -62 -8
-27 1 -54 -2 -60 -5 -10 -8 -314 -5 -410 3 -27 2 -61 9 -75 14 -14 6 -31 8
-37 6 -7 -3 -13 0 -13 6 0 6 -6 11 -14 11 -19 0 -101 45 -152 84 -49 38 -47
45 21 66 22 7 44 16 49 20 5 5 15 6 22 3 8 -3 20 -1 27 5 7 6 43 16 80 23 37
7 67 15 67 19 0 3 10 7 23 8 12 1 61 8 109 16 125 21 175 27 246 29 34 1 62 4
62 8 0 10 286 9 349 -2z m4824 -1 c31 -1 57 -6 57 -10 0 -3 17 -7 38 -6 57 0
152 -14 152 -22 0 -5 9 -6 20 -3 11 3 28 2 37 -3 10 -4 25 -8 33 -8 8 -1 21
-5 28 -10 7 -4 19 -5 27 -2 8 3 17 1 20 -4 4 -6 19 -10 36 -10 16 0 29 -4 29
-8 0 -4 8 -8 18 -9 22 -2 36 -5 102 -27 79 -27 85 -34 53 -60 -15 -11 -31 -20
-35 -19 -5 2 -8 -1 -8 -6 0 -13 -75 -55 -135 -75 -27 -10 -57 -21 -65 -25 -8
-4 -39 -7 -67 -6 -29 1 -53 -1 -53 -5 0 -4 -80 -7 -177 -5 -98 1 -178 3 -178
5 0 1 -25 4 -55 5 -30 1 -62 5 -71 9 -10 4 -23 6 -30 5 -23 -3 -99 13 -99 21
0 5 -8 7 -17 5 -10 -1 -24 3 -32 9 -8 6 -16 10 -18 8 -2 -1 -19 4 -38 12 -20
9 -37 14 -38 13 -5 -4 -69 53 -91 80 -28 37 -32 93 -6 100 11 3 20 10 20 16 0
6 3 7 7 4 3 -4 11 -2 18 3 41 34 191 42 518 28z m-4178 -1662 c58 -8 125 -28
125 -37 0 -4 16 -11 36 -15 19 -4 38 -13 41 -20 3 -8 9 -12 13 -9 4 3 13 -2
20 -10 7 -8 18 -15 25 -15 16 0 126 -120 120 -130 -3 -5 2 -10 10 -14 8 -3 15
-12 15 -21 0 -8 5 -15 10 -15 6 0 10 -6 10 -14 0 -8 7 -22 16 -30 8 -9 12 -16
8 -16 -3 0 -2 -6 4 -12 5 -7 13 -28 17 -45 3 -18 10 -33 15 -33 4 0 6 -9 3
-20 -3 -11 -1 -20 5 -20 6 0 14 -25 17 -55 4 -30 11 -57 14 -60 4 -2 7 -20 6
-39 -1 -20 1 -36 5 -36 16 0 29 -334 15 -405 -4 -22 -7 -64 -6 -92 0 -29 -3
-53 -9 -53 -5 0 -7 -14 -5 -32 2 -18 0 -37 -4 -43 -5 -5 -12 -32 -16 -60 -9
-56 -9 -54 -19 -76 -4 -9 -6 -20 -5 -25 1 -5 -4 -22 -11 -39 -7 -16 -12 -35
-11 -41 0 -6 -6 -24 -14 -40 -8 -16 -15 -36 -15 -44 0 -8 -7 -24 -15 -34 -8
-11 -15 -27 -15 -36 0 -9 -11 -39 -25 -66 -14 -27 -25 -55 -25 -61 0 -7 -5
-13 -10 -13 -6 0 -9 -3 -8 -7 2 -8 -23 -64 -32 -73 -9 -9 -44 -85 -42 -92 1
-5 -2 -8 -8 -8 -5 0 -10 -7 -10 -15 0 -8 -4 -15 -8 -15 -5 0 -15 -12 -23 -27
-16 -33 -75 -120 -97 -145 -8 -10 -11 -18 -6 -18 5 0 1 -5 -8 -11 -10 -5 -18
-16 -18 -23 0 -8 -7 -16 -15 -20 -8 -3 -15 -11 -15 -18 0 -7 -16 -30 -35 -51
-19 -21 -35 -42 -35 -47 0 -6 -9 -15 -20 -22 -11 -7 -20 -18 -20 -24 0 -6 -10
-20 -22 -31 -13 -11 -36 -37 -53 -58 -53 -68 -266 -272 -339 -325 -26 -19 -65
-50 -85 -67 -21 -18 -41 -30 -45 -26 -3 3 -6 2 -6 -4 0 -6 -13 -16 -30 -23
-16 -7 -30 -16 -30 -21 0 -5 -10 -14 -22 -19 -13 -5 -45 -23 -73 -40 -27 -17
-70 -40 -95 -53 -25 -12 -46 -25 -48 -29 -2 -5 -9 -8 -15 -8 -7 0 -29 -9 -49
-19 -19 -11 -39 -17 -42 -14 -3 4 -6 1 -6 -5 0 -7 -5 -12 -10 -12 -6 0 -29 -9
-52 -20 -22 -11 -45 -17 -49 -14 -5 3 -9 1 -9 -5 0 -5 -15 -12 -32 -16 -18 -4
-43 -13 -56 -21 -12 -8 -27 -12 -32 -9 -5 3 -11 1 -15 -5 -3 -5 -15 -10 -26
-10 -10 0 -19 -4 -19 -9 0 -5 -9 -7 -20 -4 -12 3 -20 0 -20 -7 0 -7 -8 -9 -20
-5 -11 3 -20 2 -20 -3 0 -7 -83 -27 -150 -37 -3 0 -9 -3 -15 -6 -5 -3 -19 -5
-30 -5 -11 1 -22 -2 -25 -6 -3 -4 -52 -11 -108 -14 -56 -4 -102 -10 -102 -13
0 -8 -362 -7 -375 1 -6 3 -9 44 -7 95 3 104 24 337 32 353 2 3 4 21 5 40 1 19
5 42 8 50 8 22 18 81 17 109 0 13 4 29 9 35 6 7 8 21 7 31 -2 11 0 25 4 30 8
11 21 69 21 100 0 10 4 24 10 31 5 7 9 16 8 20 -3 16 13 74 22 80 5 3 7 10 3
15 -3 6 -2 18 2 27 4 9 8 26 9 37 2 19 4 25 21 70 4 11 6 24 5 29 -1 4 3 14
10 22 6 7 8 18 5 23 -4 5 -2 12 3 15 4 3 12 20 16 38 8 33 10 42 15 56 2 4 4
12 5 17 6 34 18 65 25 65 5 0 6 9 3 20 -3 11 0 20 6 20 6 0 10 3 9 8 -1 4 4
23 11 42 8 19 13 41 12 48 -1 6 3 12 9 12 5 0 9 3 8 8 -2 4 7 32 19 62 31 77
46 114 48 120 1 3 9 22 18 42 10 21 17 42 17 48 0 5 4 10 10 10 5 0 12 16 16
35 3 19 12 39 20 46 8 6 14 17 14 25 0 7 7 19 15 28 9 8 16 19 16 23 -1 18 24
73 32 73 4 0 6 3 4 8 -3 4 10 30 29 57 18 28 34 56 34 63 0 6 5 12 10 12 6 0
9 3 8 8 -3 11 31 72 41 72 5 0 11 11 15 23 3 13 19 39 35 58 16 18 27 37 25
41 -3 4 0 8 5 8 6 0 11 7 11 15 0 8 3 15 8 15 4 0 15 15 25 33 10 18 33 50 52
70 19 21 35 41 35 45 0 4 18 27 40 51 22 24 40 47 40 52 0 4 11 16 25 27 14
11 25 24 25 30 0 5 21 29 48 52 26 24 47 45 46 49 0 3 20 25 45 49 25 24 66
63 91 86 25 23 52 47 62 52 9 5 34 26 57 47 22 20 43 37 47 37 3 0 23 14 44
30 21 17 41 30 45 30 4 0 21 10 38 23 18 12 41 27 52 33 11 6 29 16 40 22 49
28 128 61 136 56 5 -3 9 -1 9 5 0 6 16 13 35 17 19 3 35 9 35 13 0 4 6 8 13 9
38 5 54 9 64 15 7 5 35 11 63 14 27 3 50 9 50 13 0 4 20 7 45 5 25 -1 48 1 50
5 4 7 13 7 80 -4z m3190 3 c6 -3 29 -5 53 -4 23 1 42 -2 42 -5 0 -4 24 -10 52
-13 29 -4 54 -11 56 -16 2 -5 11 -7 22 -4 10 3 31 -2 47 -10 15 -8 44 -21 63
-27 88 -31 196 -84 257 -127 17 -13 34 -23 38 -23 8 0 77 -51 87 -65 4 -5 8
-6 8 -2 0 5 19 -10 43 -32 23 -22 47 -41 53 -41 6 0 19 -10 31 -22 11 -13 52
-53 92 -90 39 -37 71 -70 71 -73 0 -2 24 -28 53 -57 52 -53 177 -202 177 -212
0 -3 16 -22 35 -43 19 -21 35 -44 35 -51 0 -7 6 -15 14 -18 8 -3 20 -19 26
-35 7 -16 17 -29 23 -29 6 0 8 -3 4 -6 -3 -4 -1 -12 6 -19 13 -14 19 -22 76
-110 21 -33 37 -63 34 -67 -2 -5 1 -8 6 -8 6 0 11 -6 11 -14 0 -7 9 -24 19
-38 11 -13 33 -51 49 -83 62 -125 113 -235 112 -241 -1 -4 2 -10 7 -13 9 -7
34 -69 36 -88 0 -7 4 -13 8 -13 5 0 11 -16 15 -35 3 -19 10 -35 15 -35 5 0 9
-6 9 -14 0 -7 7 -30 15 -50 8 -20 15 -38 15 -41 1 -3 9 -25 20 -49 10 -24 16
-47 13 -50 -4 -3 -1 -6 6 -6 8 0 11 -8 8 -20 -3 -11 -1 -20 4 -20 5 0 9 -9 9
-19 0 -11 5 -23 10 -26 6 -4 8 -11 5 -16 -4 -5 -3 -15 2 -21 4 -7 8 -15 9 -18
0 -3 6 -23 12 -45 6 -22 12 -44 13 -50 0 -5 4 -14 9 -20 4 -5 6 -18 5 -27 -2
-10 0 -18 5 -18 9 0 23 -57 21 -82 -1 -10 3 -18 9 -18 6 0 10 -8 9 -17 -1 -10
0 -25 4 -33 5 -14 18 -63 22 -85 1 -5 3 -12 5 -15 1 -3 4 -14 5 -25 2 -11 8
-42 15 -70 6 -27 11 -59 11 -70 0 -10 4 -24 9 -31 6 -6 10 -22 10 -35 -1 -13
4 -49 11 -79 6 -30 11 -70 11 -87 -1 -18 3 -33 9 -33 5 0 7 -20 5 -45 -2 -25
1 -48 5 -51 5 -3 9 -38 9 -79 0 -41 3 -76 8 -79 6 -3 8 -132 3 -192 -2 -18
-416 -8 -516 13 -16 4 -40 6 -52 4 -11 -1 -24 2 -27 8 -4 6 -13 8 -21 4 -9 -3
-21 0 -28 6 -8 6 -23 9 -35 6 -12 -2 -22 0 -22 4 0 5 -25 12 -55 16 -30 3 -55
10 -55 15 0 5 -9 7 -20 5 -11 -2 -20 0 -20 6 0 5 -3 8 -7 7 -11 -3 -126 32
-138 42 -5 4 -25 11 -42 15 -18 3 -33 11 -33 16 0 6 -4 8 -10 4 -5 -3 -17 -1
-27 4 -40 23 -255 121 -263 121 -5 0 -13 6 -17 13 -7 11 -33 26 -125 74 -15 8
-31 20 -35 26 -5 7 -21 19 -38 27 -16 8 -42 26 -57 38 -14 13 -29 23 -33 22
-4 -1 -12 5 -18 12 -7 8 -34 32 -62 54 -109 87 -290 266 -375 373 -14 17 -33
39 -42 48 -10 10 -18 22 -18 28 0 6 -9 16 -20 23 -11 7 -20 19 -20 27 0 8 -5
15 -10 15 -6 0 -15 11 -20 25 -5 14 -14 25 -19 25 -5 0 -14 14 -21 30 -7 17
-22 37 -34 45 -11 8 -17 15 -13 15 4 0 -8 22 -27 48 -18 27 -36 58 -40 69 -4
12 -13 24 -21 27 -8 3 -15 12 -15 21 0 8 -4 15 -10 15 -5 0 -7 7 -4 15 4 8 2
15 -3 15 -8 0 -35 43 -37 60 -1 3 -13 26 -29 52 -15 26 -27 51 -27 57 0 5 -11
31 -25 57 -14 26 -25 52 -25 58 0 7 -9 29 -20 51 -11 22 -20 46 -20 55 0 9 -5
21 -12 28 -7 7 -9 12 -5 12 3 0 -1 19 -10 43 -8 23 -16 49 -18 57 -1 8 -5 22
-8 30 -6 17 -26 123 -30 160 -1 14 -5 30 -8 35 -4 6 -6 31 -6 56 0 25 -4 63
-8 85 -10 52 -10 242 0 279 4 17 7 54 6 83 -2 30 2 52 8 52 5 0 8 16 7 35 -2
19 0 37 4 40 4 3 11 30 15 60 3 30 10 55 14 55 4 0 8 6 9 13 1 19 30 113 31
102 1 -5 15 18 31 53 17 34 35 62 41 62 6 0 8 4 5 9 -7 11 101 126 127 134 9
4 17 11 17 17 0 6 4 9 9 6 5 -3 14 1 21 9 7 8 23 15 36 15 13 0 24 4 24 9 0
10 102 43 143 47 15 1 30 4 33 6 5 6 36 4 49 -3z"/>
<path d="M6566 8231 c-52 -19 -50 -104 5 -116 15 -4 33 -4 39 0 16 10 12 -32
-6 -49 -8 -9 -22 -16 -30 -16 -20 0 -29 -27 -14 -45 29 -34 101 -1 115 52 14
56 14 68 4 105 -14 53 -67 85 -113 69z"/>
<path d="M7112 8089 c-131 -16 -240 -78 -283 -161 -37 -73 -16 -138 47 -138
36 0 37 2 34 61 -2 60 65 123 163 153 61 18 176 12 229 -12 110 -50 147 -171
83 -272 -28 -45 -107 -90 -157 -90 -41 0 -58 -10 -58 -34 0 -29 18 -46 51 -46
82 0 137 -56 224 -225 78 -151 133 -220 207 -258 95 -48 227 -44 236 7 5 26
-13 34 -63 28 -106 -11 -165 43 -264 242 -71 143 -115 201 -172 228 l-31 15
45 22 c53 26 109 89 127 145 26 80 -8 207 -69 258 -46 39 -151 73 -235 77 -22
1 -42 3 -45 5 -3 1 -34 -1 -69 -5z"/>
<path d="M5980 8044 c-47 -27 -80 -59 -99 -97 l-15 -27 -12 36 c-23 66 -68 98
-146 103 -122 7 -205 -61 -215 -177 -4 -46 -1 -62 14 -81 17 -21 65 -32 79
-18 3 2 6 39 7 80 3 84 18 111 67 122 39 9 69 -10 87 -53 13 -30 16 -85 16
-303 -1 -183 -4 -278 -13 -305 -20 -64 -57 -81 -101 -46 -19 16 -23 29 -24 86
-1 73 -11 87 -53 80 -26 -5 -45 -21 -50 -44 -15 -68 1 -128 44 -165 16 -14 31
-25 34 -26 3 0 14 -3 25 -5 77 -18 150 -4 187 36 23 24 54 92 63 135 3 17 8
102 10 190 2 88 7 176 10 195 4 19 8 44 10 55 16 87 63 148 128 166 66 17 103
0 128 -61 20 -47 22 -65 26 -280 2 -118 9 -233 15 -255 6 -22 12 -45 14 -51 5
-25 38 -64 70 -83 37 -22 114 -28 156 -12 29 11 68 45 68 59 0 6 5 12 11 14 5
2 11 10 12 18 2 8 5 20 8 25 9 15 11 112 4 135 -8 26 -55 28 -56 3 -1 -21 -8
-82 -12 -103 -1 -8 -6 -21 -10 -27 -5 -7 -6 -13 -3 -13 3 0 -4 -11 -16 -25
-37 -43 -89 -32 -117 24 -16 31 -18 65 -19 250 -2 241 -12 305 -63 375 -59 83
-188 116 -269 70z"/>
<path d="M7032 7931 c-14 -21 -16 -67 -17 -321 -1 -266 -3 -300 -19 -324 -22
-35 -40 -41 -76 -26 -34 14 -51 57 -44 112 5 40 -5 57 -38 63 -35 7 -59 -15
-67 -62 -20 -106 53 -183 172 -184 89 -1 131 26 170 111 19 42 21 67 25 342
l4 298 -25 9 c-39 15 -68 9 -85 -18z"/>
</g>
</svg>
